<svg width="24" height="24" viewBox="0 0 24 24" fill="none" xmlns="http://www.w3.org/2000/svg">
<g clip-path="url(#clip0_5_4)">
<path d="M19 0H5C2.239 0 0 2.239 0 5V19C0 21.761 2.239 24 5 24H19C21.762 24 24 21.761 24 19V5C24 2.239 21.762 0 19 0ZM7.06 20H3.98V9H7.06V20ZM5.52 7.63C4.537 7.63 3.74 6.833 3.74 5.85C3.74 4.867 4.537 4.07 5.52 4.07C6.503 4.07 7.3 4.867 7.3 5.85C7.3 6.833 6.503 7.63 5.52 7.63ZM20 20H16.92V14.4C16.92 13.065 16.893 11.35 15.06 11.35C13.197 11.35 12.91 12.804 12.91 14.304V20H9.83V9H12.785V10.507H12.827C13.239 9.727 14.247 8.905 15.751 8.905C18.881 8.905 19.456 10.965 19.456 13.644V20H20Z" fill="white"/>
</g>
<defs>
<clipPath id="clip0_5_4">
<rect width="24" height="24" fill="white"/>
</clipPath>
</defs>
</svg>
